<mxfile host="app.diagrams.net" agent="Mozilla/5.0 (Windows NT 10.0; Win64; x64) AppleWebKit/537.36 (KHTML, like Gecko) Chrome/128.0.0.0 Safari/537.36" version="24.7.13">
  <diagram name="Page-1" id="0vcOOLKmGuT8QQa-eTxf">
    <mxGraphModel dx="1969" dy="2018" grid="1" gridSize="10" guides="1" tooltips="1" connect="1" arrows="1" fold="1" page="1" pageScale="1" pageWidth="850" pageHeight="1100" math="0" shadow="0">
      <root>
        <mxCell id="0" />
        <mxCell id="1" parent="0" />
        <mxCell id="cDwG2Ofa0H_6zuyDszh--2" value="VPC" style="sketch=0;outlineConnect=0;gradientColor=none;html=1;whiteSpace=wrap;fontSize=12;fontStyle=0;shape=mxgraph.aws4.group;grIcon=mxgraph.aws4.group_vpc;strokeColor=#879196;fillColor=none;verticalAlign=top;align=left;spacingLeft=30;fontColor=#879196;dashed=0;container=0;" vertex="1" parent="1">
          <mxGeometry x="104" y="40" width="786" height="480" as="geometry" />
        </mxCell>
        <mxCell id="cDwG2Ofa0H_6zuyDszh--5" value="Availability Zone 2" style="fillColor=none;strokeColor=#147EBA;dashed=1;verticalAlign=top;fontStyle=0;fontColor=#147EBA;whiteSpace=wrap;html=1;container=0;" vertex="1" parent="1">
          <mxGeometry x="520" y="80" width="340" height="180" as="geometry" />
        </mxCell>
        <mxCell id="cDwG2Ofa0H_6zuyDszh--16" style="edgeStyle=orthogonalEdgeStyle;rounded=0;orthogonalLoop=1;jettySize=auto;html=1;exitX=0.5;exitY=1;exitDx=0;exitDy=0;entryX=0.5;entryY=0;entryDx=0;entryDy=0;" edge="1" parent="1" source="cDwG2Ofa0H_6zuyDszh--5" target="cDwG2Ofa0H_6zuyDszh--26">
          <mxGeometry relative="1" as="geometry" />
        </mxCell>
        <mxCell id="cDwG2Ofa0H_6zuyDszh--17" style="edgeStyle=orthogonalEdgeStyle;rounded=0;orthogonalLoop=1;jettySize=auto;html=1;entryX=0.5;entryY=0;entryDx=0;entryDy=0;" edge="1" parent="1" source="cDwG2Ofa0H_6zuyDszh--11" target="cDwG2Ofa0H_6zuyDszh--19">
          <mxGeometry relative="1" as="geometry" />
        </mxCell>
        <mxCell id="cDwG2Ofa0H_6zuyDszh--33" style="edgeStyle=orthogonalEdgeStyle;rounded=0;orthogonalLoop=1;jettySize=auto;html=1;" edge="1" parent="1" source="cDwG2Ofa0H_6zuyDszh--2" target="cDwG2Ofa0H_6zuyDszh--37">
          <mxGeometry relative="1" as="geometry" />
        </mxCell>
        <mxCell id="cDwG2Ofa0H_6zuyDszh--140" style="edgeStyle=orthogonalEdgeStyle;rounded=0;orthogonalLoop=1;jettySize=auto;html=1;entryX=1;entryY=0.5;entryDx=0;entryDy=0;" edge="1" parent="1" source="cDwG2Ofa0H_6zuyDszh--35" target="cDwG2Ofa0H_6zuyDszh--19">
          <mxGeometry relative="1" as="geometry">
            <Array as="points">
              <mxPoint x="495" y="395" />
            </Array>
          </mxGeometry>
        </mxCell>
        <mxCell id="cDwG2Ofa0H_6zuyDszh--142" style="edgeStyle=orthogonalEdgeStyle;rounded=0;orthogonalLoop=1;jettySize=auto;html=1;" edge="1" parent="1" target="cDwG2Ofa0H_6zuyDszh--27">
          <mxGeometry relative="1" as="geometry">
            <mxPoint x="495" y="500" as="sourcePoint" />
            <mxPoint x="525" y="395" as="targetPoint" />
            <Array as="points">
              <mxPoint x="495" y="395" />
            </Array>
          </mxGeometry>
        </mxCell>
        <mxCell id="cDwG2Ofa0H_6zuyDszh--35" value="NAT Gateway" style="sketch=0;outlineConnect=0;fontColor=#232F3E;gradientColor=none;fillColor=#8C4FFF;strokeColor=none;dashed=0;verticalLabelPosition=bottom;verticalAlign=top;align=center;html=1;fontSize=12;fontStyle=0;aspect=fixed;pointerEvents=1;shape=mxgraph.aws4.nat_gateway;direction=south;container=0;" vertex="1" parent="1">
          <mxGeometry x="470" y="490" width="50" height="50" as="geometry" />
        </mxCell>
        <mxCell id="cDwG2Ofa0H_6zuyDszh--37" value="S3 Bucket" style="sketch=0;outlineConnect=0;fontColor=#232F3E;gradientColor=none;fillColor=#7AA116;strokeColor=none;dashed=0;verticalLabelPosition=bottom;verticalAlign=top;align=center;html=1;fontSize=12;fontStyle=0;aspect=fixed;pointerEvents=1;shape=mxgraph.aws4.bucket_with_objects;container=0;" vertex="1" parent="1">
          <mxGeometry x="950" y="241" width="75" height="78" as="geometry" />
        </mxCell>
        <mxCell id="cDwG2Ofa0H_6zuyDszh--120" value="" style="points=[[0,0],[0.25,0],[0.5,0],[0.75,0],[1,0],[1,0.25],[1,0.5],[1,0.75],[1,1],[0.75,1],[0.5,1],[0.25,1],[0,1],[0,0.75],[0,0.5],[0,0.25]];outlineConnect=0;gradientColor=none;html=1;whiteSpace=wrap;fontSize=12;fontStyle=0;container=0;pointerEvents=0;collapsible=0;recursiveResize=0;shape=mxgraph.aws4.group;grIcon=mxgraph.aws4.group_aws_cloud_alt;strokeColor=#232F3E;fillColor=none;verticalAlign=top;align=left;spacingLeft=30;fontColor=#232F3E;dashed=0;" vertex="1" parent="1">
          <mxGeometry x="70" y="-20" width="970" height="610" as="geometry" />
        </mxCell>
        <mxCell id="cDwG2Ofa0H_6zuyDszh--4" value="Public subnet 1" style="points=[[0,0],[0.25,0],[0.5,0],[0.75,0],[1,0],[1,0.25],[1,0.5],[1,0.75],[1,1],[0.75,1],[0.5,1],[0.25,1],[0,1],[0,0.75],[0,0.5],[0,0.25]];outlineConnect=0;gradientColor=none;html=1;whiteSpace=wrap;fontSize=12;fontStyle=0;container=0;pointerEvents=0;collapsible=0;recursiveResize=0;shape=mxgraph.aws4.group;grIcon=mxgraph.aws4.group_security_group;grStroke=0;strokeColor=#7AA116;fillColor=#F2F6E8;verticalAlign=top;align=left;spacingLeft=30;fontColor=#248814;dashed=0;" vertex="1" parent="1">
          <mxGeometry x="520" y="99.29" width="340" height="160.71" as="geometry" />
        </mxCell>
        <mxCell id="cDwG2Ofa0H_6zuyDszh--6" value="Application&lt;div&gt;Load Balancer&lt;/div&gt;" style="outlineConnect=0;dashed=0;verticalLabelPosition=bottom;verticalAlign=top;align=center;html=1;shape=mxgraph.aws3.application_load_balancer;fillColor=#F58534;gradientColor=none;container=0;" vertex="1" parent="1">
          <mxGeometry x="780" y="141.64" width="60.68" height="54.36" as="geometry" />
        </mxCell>
        <mxCell id="cDwG2Ofa0H_6zuyDszh--7" value="Auto Scaling&lt;div&gt;Group&lt;/div&gt;" style="sketch=0;outlineConnect=0;fontColor=#232F3E;gradientColor=none;fillColor=#ED7100;strokeColor=none;dashed=0;verticalLabelPosition=bottom;verticalAlign=top;align=center;html=1;fontSize=12;fontStyle=0;aspect=fixed;pointerEvents=1;shape=mxgraph.aws4.auto_scaling2;container=0;" vertex="1" parent="1">
          <mxGeometry x="688" y="144.0000000000001" width="52" height="52" as="geometry" />
        </mxCell>
        <mxCell id="cDwG2Ofa0H_6zuyDszh--8" value="&lt;div&gt;EC2 t2.micro&lt;/div&gt;" style="sketch=0;outlineConnect=0;fontColor=#232F3E;gradientColor=none;fillColor=#ED7100;strokeColor=none;dashed=0;verticalLabelPosition=bottom;verticalAlign=top;align=center;html=1;fontSize=12;fontStyle=0;aspect=fixed;pointerEvents=1;shape=mxgraph.aws4.t3_instance;container=0;" vertex="1" parent="1">
          <mxGeometry x="566.97" y="154.8200000000001" width="52" height="52" as="geometry" />
        </mxCell>
        <mxCell id="cDwG2Ofa0H_6zuyDszh--11" value="Availability Zone 1" style="fillColor=none;strokeColor=#147EBA;dashed=1;verticalAlign=top;fontStyle=0;fontColor=#147EBA;whiteSpace=wrap;html=1;container=0;" vertex="1" parent="1">
          <mxGeometry x="134" y="80" width="336" height="180" as="geometry" />
        </mxCell>
        <mxCell id="cDwG2Ofa0H_6zuyDszh--12" value="Public subnet 2" style="points=[[0,0],[0.25,0],[0.5,0],[0.75,0],[1,0],[1,0.25],[1,0.5],[1,0.75],[1,1],[0.75,1],[0.5,1],[0.25,1],[0,1],[0,0.75],[0,0.5],[0,0.25]];outlineConnect=0;gradientColor=none;html=1;whiteSpace=wrap;fontSize=12;fontStyle=0;container=0;pointerEvents=0;collapsible=0;recursiveResize=0;shape=mxgraph.aws4.group;grIcon=mxgraph.aws4.group_security_group;grStroke=0;strokeColor=#7AA116;fillColor=#F2F6E8;verticalAlign=top;align=left;spacingLeft=30;fontColor=#248814;dashed=0;" vertex="1" parent="1">
          <mxGeometry x="134" y="99.29" width="336" height="160.71" as="geometry" />
        </mxCell>
        <mxCell id="cDwG2Ofa0H_6zuyDszh--13" value="Application&lt;div&gt;Load Balancer&lt;/div&gt;" style="outlineConnect=0;dashed=0;verticalLabelPosition=bottom;verticalAlign=top;align=center;html=1;shape=mxgraph.aws3.application_load_balancer;fillColor=#F58534;gradientColor=none;container=0;" vertex="1" parent="1">
          <mxGeometry x="390" y="152.46" width="60.68" height="54.36" as="geometry" />
        </mxCell>
        <mxCell id="cDwG2Ofa0H_6zuyDszh--14" value="Auto Scaling&lt;div&gt;Group&lt;/div&gt;" style="sketch=0;outlineConnect=0;fontColor=#232F3E;gradientColor=none;fillColor=#ED7100;strokeColor=none;dashed=0;verticalLabelPosition=bottom;verticalAlign=top;align=center;html=1;fontSize=12;fontStyle=0;aspect=fixed;pointerEvents=1;shape=mxgraph.aws4.auto_scaling2;container=0;" vertex="1" parent="1">
          <mxGeometry x="301.5" y="153.64000000000013" width="52" height="52" as="geometry" />
        </mxCell>
        <mxCell id="cDwG2Ofa0H_6zuyDszh--15" value="EC2 t2.micro" style="sketch=0;outlineConnect=0;fontColor=#232F3E;gradientColor=none;fillColor=#ED7100;strokeColor=none;dashed=0;verticalLabelPosition=bottom;verticalAlign=top;align=center;html=1;fontSize=12;fontStyle=0;aspect=fixed;pointerEvents=1;shape=mxgraph.aws4.t3_instance;container=0;" vertex="1" parent="1">
          <mxGeometry x="190" y="153.6400000000001" width="52" height="52" as="geometry" />
        </mxCell>
        <mxCell id="cDwG2Ofa0H_6zuyDszh--26" value="Availability Zone 2" style="fillColor=none;strokeColor=#147EBA;dashed=1;verticalAlign=top;fontStyle=0;fontColor=#147EBA;whiteSpace=wrap;html=1;container=0;" vertex="1" parent="1">
          <mxGeometry x="520" y="300" width="340" height="190" as="geometry" />
        </mxCell>
        <mxCell id="cDwG2Ofa0H_6zuyDszh--27" value="Private subnet 1" style="points=[[0,0],[0.25,0],[0.5,0],[0.75,0],[1,0],[1,0.25],[1,0.5],[1,0.75],[1,1],[0.75,1],[0.5,1],[0.25,1],[0,1],[0,0.75],[0,0.5],[0,0.25]];outlineConnect=0;gradientColor=none;html=1;whiteSpace=wrap;fontSize=12;fontStyle=0;container=0;pointerEvents=0;collapsible=0;recursiveResize=0;shape=mxgraph.aws4.group;grIcon=mxgraph.aws4.group_security_group;grStroke=0;strokeColor=#00A4A6;fillColor=#E6F6F7;verticalAlign=top;align=left;spacingLeft=30;fontColor=#147EBA;dashed=0;" vertex="1" parent="1">
          <mxGeometry x="520" y="324" width="340" height="166" as="geometry" />
        </mxCell>
        <mxCell id="cDwG2Ofa0H_6zuyDszh--28" value="Application&lt;div&gt;Load Balancer&lt;/div&gt;" style="outlineConnect=0;dashed=0;verticalLabelPosition=bottom;verticalAlign=top;align=center;html=1;shape=mxgraph.aws3.application_load_balancer;fillColor=#F58534;gradientColor=none;container=0;" vertex="1" parent="1">
          <mxGeometry x="770.0027586206896" y="381.9" width="58.587586206896546" height="54.36" as="geometry" />
        </mxCell>
        <mxCell id="cDwG2Ofa0H_6zuyDszh--29" value="Auto Scaling&lt;div&gt;Group&lt;/div&gt;" style="sketch=0;outlineConnect=0;fontColor=#232F3E;gradientColor=none;fillColor=#ED7100;strokeColor=none;dashed=0;verticalLabelPosition=bottom;verticalAlign=top;align=center;html=1;fontSize=12;fontStyle=0;aspect=fixed;pointerEvents=1;shape=mxgraph.aws4.auto_scaling2;container=0;" vertex="1" parent="1">
          <mxGeometry x="680.0020689655172" y="381.9000000000001" width="50.20689655172413" height="50.20689655172413" as="geometry" />
        </mxCell>
        <mxCell id="cDwG2Ofa0H_6zuyDszh--30" value="&lt;div&gt;EC2 t2.micro&lt;br&gt;&lt;/div&gt;" style="sketch=0;outlineConnect=0;fontColor=#232F3E;gradientColor=none;fillColor=#ED7100;strokeColor=none;dashed=0;verticalLabelPosition=bottom;verticalAlign=top;align=center;html=1;fontSize=12;fontStyle=0;aspect=fixed;pointerEvents=1;shape=mxgraph.aws4.t3_instance;container=0;" vertex="1" parent="1">
          <mxGeometry x="566.9655172413793" y="386.8900000000001" width="50.20689655172413" height="50.20689655172413" as="geometry" />
        </mxCell>
        <mxCell id="cDwG2Ofa0H_6zuyDszh--19" value="Availability Zone 1" style="fillColor=none;strokeColor=#147EBA;dashed=1;verticalAlign=top;fontStyle=0;fontColor=#147EBA;whiteSpace=wrap;html=1;container=0;" vertex="1" parent="1">
          <mxGeometry x="134" y="300" width="336" height="190" as="geometry" />
        </mxCell>
        <mxCell id="cDwG2Ofa0H_6zuyDszh--20" value="Private subnet 2" style="points=[[0,0],[0.25,0],[0.5,0],[0.75,0],[1,0],[1,0.25],[1,0.5],[1,0.75],[1,1],[0.75,1],[0.5,1],[0.25,1],[0,1],[0,0.75],[0,0.5],[0,0.25]];outlineConnect=0;gradientColor=none;html=1;whiteSpace=wrap;fontSize=12;fontStyle=0;container=0;pointerEvents=0;collapsible=0;recursiveResize=0;shape=mxgraph.aws4.group;grIcon=mxgraph.aws4.group_security_group;grStroke=0;strokeColor=#00A4A6;fillColor=#E6F6F7;verticalAlign=top;align=left;spacingLeft=30;fontColor=#147EBA;dashed=0;" vertex="1" parent="1">
          <mxGeometry x="134" y="323.14" width="336" height="166.86" as="geometry" />
        </mxCell>
        <mxCell id="cDwG2Ofa0H_6zuyDszh--21" value="Application&lt;div&gt;Load Balancer&lt;/div&gt;" style="outlineConnect=0;dashed=0;verticalLabelPosition=bottom;verticalAlign=top;align=center;html=1;shape=mxgraph.aws3.application_load_balancer;fillColor=#F58534;gradientColor=none;container=0;" vertex="1" parent="1">
          <mxGeometry x="390" y="377.9457142857143" width="60.68" height="52.418571428571425" as="geometry" />
        </mxCell>
        <mxCell id="cDwG2Ofa0H_6zuyDszh--22" value="Auto Scaling&lt;div&gt;Group&lt;/div&gt;" style="sketch=0;outlineConnect=0;fontColor=#232F3E;gradientColor=none;fillColor=#ED7100;strokeColor=none;dashed=0;verticalLabelPosition=bottom;verticalAlign=top;align=center;html=1;fontSize=12;fontStyle=0;aspect=fixed;pointerEvents=1;shape=mxgraph.aws4.auto_scaling2;container=0;" vertex="1" parent="1">
          <mxGeometry x="301.5" y="380.0035714285715" width="50.142857142857146" height="50.142857142857146" as="geometry" />
        </mxCell>
        <mxCell id="cDwG2Ofa0H_6zuyDszh--23" value="&lt;div&gt;EC2 t2.micro&lt;br&gt;&lt;/div&gt;" style="sketch=0;outlineConnect=0;fontColor=#232F3E;gradientColor=none;fillColor=#ED7100;strokeColor=none;dashed=0;verticalLabelPosition=bottom;verticalAlign=top;align=center;html=1;fontSize=12;fontStyle=0;aspect=fixed;pointerEvents=1;shape=mxgraph.aws4.t3_instance;container=0;" vertex="1" parent="1">
          <mxGeometry x="190" y="380.2214285714285" width="50.142857142857146" height="50.142857142857146" as="geometry" />
        </mxCell>
        <mxCell id="cDwG2Ofa0H_6zuyDszh--125" value="Security group" style="fillColor=none;strokeColor=#DD3522;verticalAlign=top;fontStyle=0;fontColor=#DD3522;whiteSpace=wrap;html=1;" vertex="1" parent="1">
          <mxGeometry x="157" y="131.63" width="118" height="111.09" as="geometry" />
        </mxCell>
        <mxCell id="cDwG2Ofa0H_6zuyDszh--127" value="Security group" style="fillColor=none;strokeColor=#DD3522;verticalAlign=top;fontStyle=0;fontColor=#DD3522;whiteSpace=wrap;html=1;" vertex="1" parent="1">
          <mxGeometry x="533.97" y="131.63" width="118" height="111.09" as="geometry" />
        </mxCell>
        <mxCell id="cDwG2Ofa0H_6zuyDszh--129" value="Security group" style="fillColor=none;strokeColor=#DD3522;verticalAlign=top;fontStyle=0;fontColor=#DD3522;whiteSpace=wrap;html=1;" vertex="1" parent="1">
          <mxGeometry x="156.07" y="356.45" width="118" height="111.09" as="geometry" />
        </mxCell>
        <mxCell id="cDwG2Ofa0H_6zuyDszh--130" value="Security group" style="fillColor=none;strokeColor=#DD3522;verticalAlign=top;fontStyle=0;fontColor=#DD3522;whiteSpace=wrap;html=1;" vertex="1" parent="1">
          <mxGeometry x="533.97" y="360" width="118" height="111.09" as="geometry" />
        </mxCell>
        <mxCell id="cDwG2Ofa0H_6zuyDszh--139" style="edgeStyle=orthogonalEdgeStyle;rounded=0;orthogonalLoop=1;jettySize=auto;html=1;entryX=1;entryY=0.5;entryDx=0;entryDy=0;" edge="1" parent="1" source="cDwG2Ofa0H_6zuyDszh--131" target="cDwG2Ofa0H_6zuyDszh--11">
          <mxGeometry relative="1" as="geometry" />
        </mxCell>
        <mxCell id="cDwG2Ofa0H_6zuyDszh--131" value="&amp;nbsp; Internet&amp;nbsp; Gateway" style="sketch=0;outlineConnect=0;fontColor=#232F3E;gradientColor=none;fillColor=#8C4FFF;strokeColor=none;dashed=0;verticalLabelPosition=bottom;verticalAlign=top;align=center;html=1;fontSize=12;fontStyle=0;aspect=fixed;pointerEvents=1;shape=mxgraph.aws4.internet_gateway;" vertex="1" parent="1">
          <mxGeometry x="466.64" width="58.68" height="58.68" as="geometry" />
        </mxCell>
        <mxCell id="cDwG2Ofa0H_6zuyDszh--138" style="edgeStyle=orthogonalEdgeStyle;rounded=0;orthogonalLoop=1;jettySize=auto;html=1;" edge="1" parent="1" target="cDwG2Ofa0H_6zuyDszh--4">
          <mxGeometry relative="1" as="geometry">
            <mxPoint x="496.0344827586209" y="58.67933181507624" as="sourcePoint" />
            <mxPoint x="510" y="170" as="targetPoint" />
            <Array as="points">
              <mxPoint x="496" y="170" />
            </Array>
          </mxGeometry>
        </mxCell>
      </root>
    </mxGraphModel>
  </diagram>
</mxfile>
